<?xml version="1.0" encoding="UTF-8"?>
<svg version="1.1" xmlns="http://www.w3.org/2000/svg" width="1500" height="921">
<path d="M0 0 C41.8802338 7.61458796 85.43567478 24.24443789 119 51 C120.26070312 51.95519531 120.26070312 51.95519531 121.546875 52.9296875 C150.54272342 75.51130278 174.10510051 107.79160193 179 145 C179.14336157 148.75866147 179.13054874 152.51448609 179.12025452 156.27548218 C179.12153615 157.98601334 179.12153615 157.98601334 179.12284368 159.73110068 C179.12449152 163.55431094 179.11898845 167.37747737 179.11352539 171.20068359 C179.1126865 173.94045032 179.11335756 176.68021618 179.1139679 179.41998291 C179.11449188 185.31960886 179.11135818 191.21922373 179.10573006 197.11884689 C179.09759806 205.64867852 179.09499809 214.1785048 179.09374207 222.70833988 C179.09155422 236.54791322 179.08490137 250.38748065 179.07543945 264.22705078 C179.06625843 277.66975881 179.05918097 291.11246524 179.05493164 304.55517578 C179.05466892 305.38398421 179.05440619 306.21279264 179.05413551 307.06671648 C179.05283046 311.22466447 179.05156675 315.38261247 179.05032361 319.54056048 C179.03995932 354.02704457 179.02234826 388.51352165 179 423 C176.86202144 420.92440705 175.40409792 419.16197407 174.08984375 416.48046875 C173.74518066 415.79500977 173.40051758 415.10955078 173.04541016 414.40332031 C172.6797998 413.67209961 172.31418945 412.94087891 171.9375 412.1875 C160.0453305 389.14733957 141.59876593 368.62665001 121 353 C120.3930127 352.53303711 119.78602539 352.06607422 119.16064453 351.58496094 C86.70865893 326.76081574 49.44890163 310.23287558 10.71459961 297.91625977 C7.11167321 296.70016275 3.56051043 295.33519141 0 294 C0 196.98 0 99.96 0 0 Z " fill="#3BC9D6" transform="translate(574,86)"/>
<path d="M0 0 C0 97.02 0 194.04 0 294 C-9 297 -9 297 -12.53076172 298.15991211 C-50.7104507 310.71187565 -88.325346 326.75773727 -120 352 C-120.79664063 352.60585938 -121.59328125 353.21171875 -122.4140625 353.8359375 C-146.82334886 372.67958853 -164.40757092 395.54146878 -178 423 C-178.33 423 -178.66 423 -179 423 C-179.09167004 387.20282337 -179.16209676 351.40566741 -179.20426132 315.60839745 C-179.2092638 311.37670813 -179.21444112 307.14501905 -179.21972656 302.91333008 C-179.2207758 302.07092075 -179.22182505 301.22851143 -179.22290608 300.36057455 C-179.24028416 286.74246747 -179.27180745 273.12442833 -179.30861118 259.50636148 C-179.34609306 245.5201298 -179.36825113 231.53393357 -179.37635398 217.54765373 C-179.38182677 208.92593116 -179.39907596 200.30440065 -179.43166587 191.68273724 C-179.45290335 185.76062701 -179.45917929 179.83861524 -179.45400551 173.91646975 C-179.45145792 170.50588206 -179.45743052 167.09589649 -179.4768219 163.68532372 C-179.61786952 137.58745057 -179.61786952 137.58745057 -175 125 C-174.62542852 123.87070902 -174.62542852 123.87070902 -174.24328995 122.71860409 C-158.95664085 78.19483261 -120.25573529 46.26473885 -79.21484375 26.125 C-57.27069725 15.63916854 -34.49795475 8.13702948 -11 2 C-9.82074951 1.68651611 -9.82074951 1.68651611 -8.61767578 1.36669922 C-5.65972683 0.59708036 -3.07057539 0 0 0 Z " fill="#3CC9D6" transform="translate(950,86)"/>
<path d="M0 0 C0.87748398 -0.00947662 1.75496796 -0.01895325 2.65904236 -0.02871704 C3.59559158 -0.03309784 4.53214081 -0.03747864 5.49707031 -0.04199219 C6.48457779 -0.04887054 7.47208527 -0.0557489 8.48951721 -0.06283569 C11.68478063 -0.08002572 14.87988802 -0.08629849 18.07519531 -0.08886719 C19.15844086 -0.09053894 20.2416864 -0.09221069 21.35775757 -0.09393311 C41.5068902 -0.09580297 60.4621868 1.54967672 80.32519531 5.16113281 C80.32519531 102.18113281 80.32519531 199.20113281 80.32519531 299.16113281 C62.83519531 299.49113281 45.34519531 299.82113281 27.32519531 300.16113281 C14.94479902 300.97614323 2.64775473 301.82198564 -9.67480469 303.16113281 C-10.95645508 303.29890137 -12.23810547 303.43666992 -13.55859375 303.57861328 C-61.2416871 308.90616117 -108.62726002 320.122263 -152.22290039 340.43969727 C-153.83878052 341.1873938 -153.83878052 341.1873938 -155.48730469 341.95019531 C-156.4425 342.40088379 -157.39769531 342.85157227 -158.38183594 343.31591797 C-159.51685547 343.73429932 -159.51685547 343.73429932 -160.67480469 344.16113281 C-161.33480469 343.83113281 -161.99480469 343.50113281 -162.67480469 343.16113281 C-133.09031508 307.20912061 -83.99585212 285.85145628 -40.79980469 271.84863281 C-39.83929199 271.53531006 -38.8787793 271.2219873 -37.88916016 270.89916992 C-29.20275021 268.15636307 -20.62011834 266.2659125 -11.67480469 264.16113281 C-11.17980469 133.97613281 -11.17980469 133.97613281 -10.67480469 1.16113281 C-6.84377582 0.522628 -3.76620096 0.03379323 0 0 Z " fill="#263467" transform="translate(982.6748046875,133.8388671875)"/>
<path d="M0 0 C1.41119865 -0.00472824 1.41119865 -0.00472824 2.85090637 -0.009552 C3.82525131 -0.00752777 4.79959625 -0.00550354 5.8034668 -0.00341797 C6.83908249 -0.00437469 7.87469818 -0.00533142 8.94169617 -0.00631714 C11.11054547 -0.00699236 13.27939687 -0.00518446 15.44824219 -0.00097656 C18.7613578 0.00440863 22.07433955 -0.00095803 25.38745117 -0.00732422 C27.50529001 -0.00666385 29.62312877 -0.00538356 31.7409668 -0.00341797 C33.21766594 -0.00645432 33.21766594 -0.00645432 34.72419739 -0.009552 C36.11175484 -0.00482376 36.11175484 -0.00482376 37.52734375 0 C38.33355667 0.00079559 39.13976959 0.00159119 39.97041321 0.00241089 C42.81479654 0.1486552 45.63079712 0.66116313 48.44018555 1.12939453 C48.77018555 87.91939453 49.10018555 174.70939453 49.44018555 264.12939453 C56.04018555 265.77939453 62.64018555 267.42939453 69.44018555 269.12939453 C74.31284695 270.58765471 79.12559371 272.0701196 83.94018555 273.69189453 C84.87498749 274.00578629 84.87498749 274.00578629 85.82867432 274.32601929 C120.69533617 286.09744878 155.68811179 302.51732247 183.44018555 327.12939453 C184.30772461 327.88865234 185.17526367 328.64791016 186.0690918 329.43017578 C191.0319622 333.8309327 195.81939996 338.37090341 200.44018555 343.12939453 C199.78018555 343.45939453 199.12018555 343.78939453 198.44018555 344.12939453 C196.20385742 343.34423828 196.20385742 343.34423828 193.40893555 342.06689453 C192.38074707 341.60331543 191.35255859 341.13973633 190.29321289 340.66210938 C188.63346436 339.90341553 188.63346436 339.90341553 186.94018555 339.12939453 C184.63135565 338.09835839 182.32145443 337.06971801 180.01049805 336.04345703 C178.87773438 335.53975586 177.7449707 335.03605469 176.57788086 334.51708984 C135.29572301 316.25940348 89.42618761 307.60945851 44.75268555 302.81689453 C43.99580444 302.73558289 43.23892334 302.65427124 42.45910645 302.57049561 C37.45683934 302.0410865 32.45140919 301.56550876 27.44018555 301.12939453 C26.22886963 301.02191895 25.01755371 300.91444336 23.76953125 300.80371094 C10.53164065 299.80175449 -2.73122136 300.05468103 -15.99731445 300.12939453 C-20.80850973 300.15590423 -25.61966798 300.17587177 -30.4309082 300.19189453 C-32.08684242 300.20434204 -32.08684242 300.20434204 -33.77622986 300.21704102 C-34.78561111 300.22034424 -35.79499237 300.22364746 -36.83496094 300.22705078 C-38.17155006 300.23490601 -38.17155006 300.23490601 -39.53514099 300.24291992 C-41.55981445 300.12939453 -41.55981445 300.12939453 -42.55981445 299.12939453 C-42.65679915 297.5603356 -42.68353096 295.98689302 -42.68286228 294.41483974 C-42.68485333 293.3887304 -42.68684438 292.36262105 -42.68889576 291.30541748 C-42.68598292 290.16439152 -42.68307008 289.02336556 -42.68006897 287.84776306 C-42.68092339 286.64634424 -42.68177782 285.44492542 -42.68265814 284.20709997 C-42.68402634 280.85727507 -42.68087879 277.50750788 -42.67588007 274.15768993 C-42.67157895 270.5509935 -42.67302176 266.94429898 -42.67378235 263.33760071 C-42.6743078 257.08375052 -42.67115881 250.82991073 -42.66554451 244.57606316 C-42.65743235 235.53394613 -42.65481458 226.49183416 -42.65355652 217.44971389 C-42.65136555 202.78100758 -42.64470425 188.11230681 -42.63525391 173.44360352 C-42.62608095 159.19067411 -42.61899955 144.93774621 -42.61474609 130.68481445 C-42.61448337 129.80690048 -42.61422065 128.9289865 -42.61394996 128.02446907 C-42.61264497 123.62042277 -42.61138125 119.21637645 -42.61013806 114.81233013 C-42.59976405 78.25134768 -42.58214452 41.69037154 -42.55981445 5.12939453 C-38.45654986 4.47774485 -34.35205698 3.8341634 -30.24731445 3.19189453 C-29.0994043 3.00949219 -27.95149414 2.82708984 -26.76879883 2.63916016 C-17.89692413 1.25685673 -8.99639499 0.0088343 0 0 Z " fill="#263467" transform="translate(503.559814453125,133.87060546875)"/>
<path d="M0 0 C402.93 0 805.86 0 1221 0 C1221 2.64 1221 5.28 1221 8 C818.07 8 415.14 8 0 8 C0 5.36 0 2.72 0 0 Z " fill="#53C8D4" transform="translate(137,734)"/>
<path d="M0 0 C1.0280257 0.97116587 2.03874741 1.96269895 3 3 C3.33 1.02 3.66 -0.96 4 -3 C13.24 -3 22.48 -3 32 -3 C32.0679721 9.1792066 32.12292912 21.35828571 32.15543652 33.53763962 C32.17104409 39.19394774 32.19219221 44.85011854 32.22631836 50.50634766 C32.25908744 55.97230618 32.27688987 61.4381332 32.28463173 66.90418243 C32.29014387 68.9820182 32.30090715 71.05984737 32.31719017 73.13762665 C32.52530707 100.81303002 32.52530707 100.81303002 23 112 C22.08273035 113.37459782 21.16606771 114.74960089 20.25 116.125 C13.86181858 124.63700089 3.05684638 128.39810338 -7.0625 130.1875 C-23.73214998 132.44746413 -35.52329696 130.8187861 -49.06591797 120.9230957 C-56.34934521 115.37570433 -60.34521285 110.52783668 -64 102 C-52.12 96.555 -52.12 96.555 -40 91 C-35 96 -35 96 -35 98 C-25.66844851 103.05459039 -17.45857145 104.3205351 -7.078125 101.76171875 C-3.07113645 100.29299174 -0.16224346 97.82019145 2.15234375 94.1953125 C3.2192981 91.43204823 3.19531062 89.20304609 3.125 86.25 C3.10695313 85.26515625 3.08890625 84.2803125 3.0703125 83.265625 C3.04710937 82.51796875 3.02390625 81.7703125 3 81 C1.7625 82.1446875 1.7625 82.1446875 0.5 83.3125 C-6.00969515 88.66626797 -12.74361518 89.80008036 -21 89 C-30.50370586 87.76974681 -38.25631856 85.75848311 -46 80 C-46.80953125 79.42636719 -47.6190625 78.85273437 -48.453125 78.26171875 C-51.64855239 75.4240616 -53.80061028 72.31122095 -56.125 68.75 C-56.55425781 68.11964844 -56.98351562 67.48929688 -57.42578125 66.83984375 C-64.2090365 56.59191043 -66.20437769 46.36376266 -63.93798828 34.24047852 C-60.53118105 18.13874424 -52.70884712 8.97647798 -39 0 C-26.90804501 -6.51105269 -11.67146833 -8.28674252 0 0 Z M-32.671875 28.28125 C-36.36290634 33.05787879 -37.26492944 37.58691271 -36.9375 43.5625 C-36.13512596 49.79168344 -34.2480262 53.7519738 -29.75 58.25 C-24.08379807 61.85576486 -19.01143466 63.79492635 -12.23828125 62.6953125 C-6.68934744 60.97155994 -2.45552523 57.34235644 0.5 52.375 C3.03233021 46.4737662 3.10131931 39.75562259 1.3046875 33.62890625 C-1.39823818 27.62114286 -5.90827426 23.55133163 -12 21 C-20.56690922 19.91146533 -26.76817406 21.94253952 -32.671875 28.28125 Z " fill="#293669" transform="translate(972,593)"/>
<path d="M0 0 C2.82124064 1.83124165 5.41698701 3.84936093 8 6 C8.99 6.78375 9.98 7.5675 11 8.375 C11.66 8.91125 12.32 9.4475 13 10 C13.37769531 9.55269531 13.75539063 9.10539063 14.14453125 8.64453125 C19.70540257 2.53668898 27.58994911 -2.21797379 35.953125 -3.23828125 C46.43893298 -3.57710838 56.78067315 -1.57219502 64.75 5.5 C75.74760185 16.42278823 76.33862757 28.7115614 76.390625 43.58984375 C76.38031343 48.34177108 76.33664319 53.09220464 76.2746582 57.84368896 C76.23320298 61.36379158 76.21513595 64.88401697 76.1953125 68.40429688 C76.1549844 75.27015548 76.07664294 82.13407032 76 89 C67.09 89 58.18 89 49 89 C48.96261719 85.24367188 48.92523438 81.48734375 48.88671875 77.6171875 C48.84048828 73.97324854 48.78925997 70.32941169 48.73754883 66.68554688 C48.70432486 64.15598775 48.67628511 61.62635495 48.65356445 59.09667969 C48.61997296 55.45736333 48.56765246 51.81872066 48.51171875 48.1796875 C48.50532883 47.05134491 48.4989389 45.92300232 48.49235535 44.76046753 C48.3874469 39.13907228 48.27304414 34.79889423 45 30 C41.47905697 26.73668694 38.69606784 25.71185268 34 25.5 C29.30393216 25.71185268 26.52094303 26.73668694 23 30 C19.11735382 35.69268471 19.52586849 41.54247342 19.48828125 48.1796875 C19.46135445 49.93153854 19.46135445 49.93153854 19.43388367 51.71878052 C19.37983772 55.43748397 19.34590222 59.15605946 19.3125 62.875 C19.279322 65.40105945 19.2448319 67.92710203 19.20898438 70.453125 C19.12165214 76.63543453 19.06153131 82.81716468 19 89 C10.09 89 1.18 89 -8 89 C-8.03738281 85.32746094 -8.07476562 81.65492188 -8.11328125 77.87109375 C-8.15952921 74.30324441 -8.21075114 70.73549862 -8.26245117 67.16772461 C-8.29564804 64.69350508 -8.32369618 62.21921078 -8.34643555 59.74487305 C-8.38007701 56.18245666 -8.43239987 52.62072228 -8.48828125 49.05859375 C-8.49467117 47.95728622 -8.5010611 46.8559787 -8.50764465 45.72129822 C-8.62159274 39.73121175 -9.04482125 35.26118417 -12 30 C-15.49321043 26.67719008 -18.29457208 25.71935078 -23 25.5 C-27.69606784 25.71185268 -30.47905697 26.73668694 -34 30 C-37.88264618 35.69268471 -37.47413151 41.54247342 -37.51171875 48.1796875 C-37.52966995 49.3475882 -37.54762115 50.51548889 -37.56611633 51.71878052 C-37.62016228 55.43748397 -37.65409778 59.15605946 -37.6875 62.875 C-37.720678 65.40105945 -37.7551681 67.92710203 -37.79101562 70.453125 C-37.87834786 76.63543453 -37.93846869 82.81716468 -38 89 C-46.91 89 -55.82 89 -65 89 C-65 59.3 -65 29.6 -65 -1 C-56.09 -1 -47.18 -1 -38 -1 C-38 0.65 -38 2.3 -38 4 C-37.41992188 3.66226563 -36.83984375 3.32453125 -36.2421875 2.9765625 C-35.46101563 2.53054688 -34.67984375 2.08453125 -33.875 1.625 C-33.10929687 1.18414063 -32.34359375 0.74328125 -31.5546875 0.2890625 C-21.96784407 -4.54833556 -9.66807746 -5.02068115 0 0 Z " fill="#3EC9D6" transform="translate(355,592)"/>
<path d="M0 0 C1.1653125 -0.00128906 2.330625 -0.00257813 3.53125 -0.00390625 C4.7584375 -0.00003906 5.985625 0.00382813 7.25 0.0078125 C9.09078125 0.00201172 9.09078125 0.00201172 10.96875 -0.00390625 C12.71671875 -0.00197266 12.71671875 -0.00197266 14.5 0 C15.57765625 0.00112793 16.6553125 0.00225586 17.765625 0.00341797 C20.25 0.1328125 20.25 0.1328125 21.25 1.1328125 C21.34842334 2.85142355 21.37632041 4.5741053 21.37698364 6.29553223 C21.38121338 7.97405022 21.38121338 7.97405022 21.38552856 9.68647766 C21.38249222 11.54420052 21.38249222 11.54420052 21.37939453 13.43945312 C21.38202301 15.38310005 21.38202301 15.38310005 21.38470459 17.36601257 C21.38927857 20.92996587 21.38748951 24.49389034 21.3843255 28.05784416 C21.38180172 31.77965246 21.38413949 35.50145821 21.38571167 39.2232666 C21.38753331 45.47453252 21.3851272 51.72578665 21.38037109 57.97705078 C21.37492848 65.21442374 21.37669114 72.45176852 21.3821975 79.6891408 C21.38672878 85.89210009 21.3873791 92.09505089 21.38475883 98.2980113 C21.38319614 102.00754222 21.38300207 105.71705989 21.38629532 109.42658997 C21.38970809 113.55980103 21.38498405 117.69296319 21.37939453 121.82617188 C21.38141876 123.06465378 21.38344299 124.30313568 21.38552856 125.57914734 C21.38270874 126.69815933 21.37988892 127.81717133 21.37698364 128.97009277 C21.3764181 130.43794346 21.3764181 130.43794346 21.37584114 131.93544769 C21.25 134.1328125 21.25 134.1328125 20.25 135.1328125 C18.25035018 135.22039253 16.2476389 135.23977826 14.24609375 135.23046875 C13.03115234 135.22724609 11.81621094 135.22402344 10.56445312 135.22070312 C9.28505859 135.21232422 8.00566406 135.20394531 6.6875 135.1953125 C5.40423828 135.19080078 4.12097656 135.18628906 2.79882812 135.18164062 C-0.38416022 135.16980795 -3.56705762 135.15332318 -6.75 135.1328125 C-7.08 133.1528125 -7.41 131.1728125 -7.75 129.1328125 C-8.33007812 129.54273438 -8.91015625 129.95265625 -9.5078125 130.375 C-19.58258388 137.32426475 -27.17520741 138.05808148 -39.125 136.0078125 C-50.85865171 133.47080673 -58.49996187 128.63603372 -65.75 119.1328125 C-66.39066406 118.31296875 -67.03132813 117.493125 -67.69140625 116.6484375 C-71.59515801 111.39996959 -74.31255748 106.52887456 -75.75 100.1328125 C-76.01490234 99.08480469 -76.01490234 99.08480469 -76.28515625 98.015625 C-78.17664611 87.401245 -75.00631593 74.01369877 -69.5 64.8828125 C-66.1253654 60.24000311 -62.32398706 56.57364182 -57.75 53.1328125 C-56.96496094 52.5140625 -56.17992187 51.8953125 -55.37109375 51.2578125 C-45.43286602 43.79247712 -35.10315849 41.6693743 -22.82128906 42.75732422 C-17.22101901 43.77255469 -11.74991466 47.13289784 -7.75 51.1328125 C-7.73969254 50.5086293 -7.72938507 49.88444611 -7.71876526 49.24134827 C-7.61093467 42.76926698 -7.49631853 36.29733157 -7.37768555 29.82543945 C-7.33426122 27.40717611 -7.29259188 24.9888806 -7.25268555 22.57055664 C-7.19516397 19.10292854 -7.13141813 15.63546347 -7.06640625 12.16796875 C-7.04969376 11.07944107 -7.03298126 9.99091339 -7.01576233 8.86940002 C-6.99581711 7.86843796 -6.97587189 6.86747589 -6.95532227 5.83618164 C-6.93977798 4.95015762 -6.9242337 4.06413361 -6.90821838 3.15126038 C-6.57707142 -1.07329853 -3.58983455 0.0037573 0 0 Z M-44.48828125 77.21875 C-48.42403665 83.18940061 -48.36297717 89.19202484 -47.75 96.1328125 C-46.66706133 99.55292522 -46.66706133 99.55292522 -44.75 102.1328125 C-43.9765625 103.4321875 -43.9765625 103.4321875 -43.1875 104.7578125 C-38.97181974 108.86539839 -34.01298849 110.74424288 -28.19140625 111.4375 C-21.82362884 111.29842218 -18.04998061 108.80383297 -13.60546875 104.3671875 C-9.37712323 99.27536931 -8.48421189 95.07127651 -8.875 88.5078125 C-9.80249604 81.36411962 -12.25701964 76.85933048 -17.75 72.1328125 C-27.25101254 65.87078151 -37.51040509 68.84529861 -44.48828125 77.21875 Z " fill="#2A376A" transform="translate(1231.75,544.8671875)"/>
<path d="M0 0 C8.91 0 17.82 0 27 0 C27 44.22 27 88.44 27 134 C18.09 134 9.18 134 0 134 C-0.33 132.02 -0.66 130.04 -1 128 C-1.639375 128.5775 -2.27875 129.155 -2.9375 129.75 C-10.64304829 135.41121915 -17.47846859 137.07749432 -27 136 C-39.69806328 133.96297935 -50.22527585 129.80828385 -58.30297852 119.3059082 C-59.6350502 117.4350154 -60.91756238 115.53855199 -62.1875 113.625 C-62.84395508 112.67367187 -62.84395508 112.67367187 -63.51367188 111.703125 C-66.26494479 107.58671667 -67.88057757 103.88369787 -69 99 C-69.18304687 98.27296875 -69.36609375 97.5459375 -69.5546875 96.796875 C-71.40800046 84.95375314 -67.83788184 70.75025991 -60.8359375 61.1484375 C-58.11972914 57.96989581 -55.40418855 55.42419488 -52 53 C-51.113125 52.3296875 -50.22625 51.659375 -49.3125 50.96875 C-38.92304295 43.50132775 -28.61349651 40.74549666 -15.91796875 42.24609375 C-9.6140911 43.45216107 -6.82245119 46.11836587 -1 50 C-0.67 33.5 -0.34 17 0 0 Z M-36.5234375 74.31640625 C-41.22257374 79.67441609 -41.54583635 85.16927898 -41.34765625 92.0625 C-40.66215931 97.85456404 -38.39999483 102.00824105 -34.0625 105.875 C-28.77359889 109.54484975 -24.46365086 110.75388662 -18 110 C-11.5407474 108.18687646 -7.74440067 104.3943081 -4 99 C-1.1535022 93.3622762 -1.88995277 88.06504065 -3 82 C-4.74433482 77.14694965 -7.65868855 73.76265274 -12 71 C-21.00009252 66.90584026 -29.12905368 67.27654768 -36.5234375 74.31640625 Z " fill="#3EC9D6" transform="translate(609,547)"/>
<path d="M0 0 C0.76376953 0.17015625 1.52753906 0.3403125 2.31445312 0.515625 C9.59931893 2.21064938 15.60235215 4.4789361 21.1875 9.625 C22.01765625 10.37523437 22.8478125 11.12546875 23.703125 11.8984375 C25.94917366 14.26228591 27.38065279 16.39370432 28.9375 19.25 C29.42210693 20.08265381 29.42210693 20.08265381 29.91650391 20.93212891 C31.03754891 22.88868428 32.08204459 24.87584496 33.125 26.875 C33.49302734 27.5040625 33.86105469 28.133125 34.24023438 28.78125 C38.78222268 37.7135461 36.9375 44.15528136 36.9375 55.25 C17.4675 55.58 -2.0025 55.91 -22.0625 56.25 C-20.67912114 61.09344563 -20.67912114 61.09344563 -18.25 62.4375 C-17.1671875 62.8396875 -17.1671875 62.8396875 -16.0625 63.25 C-15.36125 63.641875 -14.66 64.03375 -13.9375 64.4375 C-9.62146399 65.65724931 -5.40822952 65.3028678 -1.0625 64.25 C-0.45519043 63.73622803 0.15211914 63.22245605 0.77783203 62.69311523 C3.51544332 60.86381156 4.68478578 61.07191126 7.89453125 61.578125 C8.84263672 61.71863281 9.79074219 61.85914063 10.76757812 62.00390625 C11.75177734 62.16761719 12.73597656 62.33132813 13.75 62.5 C15.20889648 62.72236328 15.20889648 62.72236328 16.69726562 62.94921875 C18.58822726 63.2385602 20.47781415 63.53706767 22.36572266 63.84570312 C24.59988973 64.1969259 26.82815075 64.47519125 29.07421875 64.734375 C30.01910156 64.90453125 30.96398438 65.0746875 31.9375 65.25 C32.2675 65.91 32.5975 66.57 32.9375 67.25 C28.12740992 78.76374503 18.62554057 85.90461335 7.69921875 91.15625 C-1.67865956 94.87026121 -13.31917383 94.34411535 -22.81640625 91.296875 C-33.93413491 86.11504669 -46.00853442 74.73391321 -50.5625 63.25 C-54.23973279 49.67962629 -53.0528859 33.78608395 -46.484375 21.234375 C-39.77598213 11.14156771 -28.82962897 2.44996091 -17.0625 -0.75 C-10.85046901 -1.947807 -6.10922172 -1.49232897 0 0 Z M-16.8671875 25.29296875 C-20.73916438 28.26918979 -21.77181469 30.66862939 -24.0625 35.25 C-13.1725 35.25 -2.2825 35.25 8.9375 35.25 C5.77726182 28.92952363 3.34398188 25.99109074 -2.875 22.8125 C-7.89722802 21.92622447 -12.4240468 22.72517965 -16.8671875 25.29296875 Z " fill="#283668" transform="translate(1318.0625,588.75)"/>
<path d="M0 0 C2.24885607 1.65905456 4.14742714 3.35518971 6.05859375 5.390625 C6.59226562 5.95136719 7.1259375 6.51210938 7.67578125 7.08984375 C18.22451916 19.6882069 20.05859375 33.30888524 20.05859375 49.390625 C0.58859375 49.720625 -18.88140625 50.050625 -38.94140625 50.390625 C-34.98750074 56.64680053 -34.98750074 56.64680053 -28.94140625 59.390625 C-24.74906282 59.99432245 -21.80948653 59.83390004 -18.00390625 57.890625 C-11.06445672 54.49171094 -2.33423503 56.69030445 5.05859375 57.765625 C6.01121094 57.89195312 6.96382812 58.01828125 7.9453125 58.1484375 C8.84894531 58.27734375 9.75257813 58.40625 10.68359375 58.5390625 C11.50085938 58.65427246 12.318125 58.76948242 13.16015625 58.88818359 C14.09988281 59.13689209 14.09988281 59.13689209 15.05859375 59.390625 C15.38859375 60.050625 15.71859375 60.710625 16.05859375 61.390625 C10.07317501 73.8218793 0.56546488 81.15982072 -11.94140625 86.390625 C-20.96107721 89.50478508 -33.60325368 88.15879918 -42.296875 84.78125 C-49.95665687 80.75335879 -55.47636363 73.94295358 -60.94140625 67.390625 C-62.02421875 66.2459375 -62.02421875 66.2459375 -63.12890625 65.078125 C-69.82344978 55.15173288 -70.89779488 43.7999638 -68.87817383 32.28051758 C-65.99401941 17.75255929 -60.28520635 9.05350355 -48.1640625 0.41015625 C-33.24131972 -9.51786878 -15.60986302 -8.54085467 0 0 Z M-38.25390625 23.953125 C-40.08515625 26.35520833 -40.08515625 26.35520833 -40.94140625 29.390625 C-30.38140625 29.390625 -19.82140625 29.390625 -8.94140625 29.390625 C-11.1453496 22.77879495 -11.72121713 22.11933152 -16.94140625 18.390625 C-25.59278112 15.50683338 -32.14650195 17.18546077 -38.25390625 23.953125 Z " fill="#3FCAD6" transform="translate(510.94140625,595.609375)"/>
<path d="M0 0 C9.24 0 18.48 0 28 0 C28.02578125 3.81691406 28.0515625 7.63382813 28.078125 11.56640625 C28.11656463 15.27326759 28.16171896 18.97999074 28.20751953 22.68676758 C28.23570174 25.25798925 28.25692987 27.82929712 28.27099609 30.40063477 C28.29246258 34.10217326 28.33913565 37.8026784 28.390625 41.50390625 C28.39185364 42.64896133 28.39308228 43.79401642 28.39434814 44.97377014 C28.51357569 51.50750667 29.05278748 55.70714685 33 61 C37.18314119 63.82977198 43.10698473 63.73991938 48 63 C50.16048242 61.53750766 50.16048242 61.53750766 52 60 C52.66 60 53.32 60 54 60 C56.61808628 54.01973976 56.34971715 48.00877708 56.4140625 41.6015625 C56.43342865 40.41146576 56.4527948 39.22136902 56.4727478 37.99520874 C56.53238503 34.20521139 56.57886616 30.41518341 56.625 26.625 C56.66319431 24.05076822 56.70224689 21.47654903 56.7421875 18.90234375 C56.83968405 12.60162906 56.91938059 6.3010436 57 0 C66.24 0 75.48 0 85 0 C85 29.7 85 59.4 85 90 C76.09 90 67.18 90 58 90 C57.34 88.68 56.68 87.36 56 86 C55.32453125 86.34933594 54.6490625 86.69867187 53.953125 87.05859375 C53.06109375 87.51363281 52.1690625 87.96867188 51.25 88.4375 C50.36828125 88.88996094 49.4865625 89.34242188 48.578125 89.80859375 C39.08451948 94.19579024 30.06945806 91.65014508 20.6875 88.41015625 C12.57417253 85.30749606 7.95842203 80.69767643 4 73 C-1.69629847 59.37301079 -0.47024882 44.55229478 -0.2746582 30.08343506 C-0.23318018 26.68398241 -0.21513115 23.28440214 -0.1953125 19.88476562 C-0.15500297 13.25586275 -0.07666019 6.62897673 0 0 Z " fill="#2B396B" transform="translate(1017,590)"/>
<path d="M0 0 C10.49959819 10.76914162 17.06110266 19.85353257 18.1953125 35.359375 C17.99940154 39.84573604 17.26529398 44.00466544 16.1953125 48.359375 C15.89753906 49.68388672 15.89753906 49.68388672 15.59375 51.03515625 C12.92168959 61.38536615 7.5862642 68.88771471 -0.8046875 75.359375 C-1.45566406 75.9059375 -2.10664062 76.4525 -2.77734375 77.015625 C-12.37786373 84.8029255 -22.818534 85.5196941 -34.8046875 84.359375 C-44.34847453 82.72142528 -50.21254399 78.22444164 -56.8046875 71.359375 C-57.69671875 70.47507812 -58.58875 69.59078125 -59.5078125 68.6796875 C-68.70128688 59.19051657 -72.18905686 49.92770763 -72.01171875 36.8046875 C-71.26195574 24.32749935 -68.2316107 11.96460637 -58.7421875 3.171875 C-57.45253303 2.20318834 -56.13533238 1.27093778 -54.8046875 0.359375 C-53.77085937 -0.39472656 -52.73703125 -1.14882813 -51.671875 -1.92578125 C-35.75199291 -13.17279635 -14.6405403 -14.38898463 0 0 Z M-40.0546875 23.671875 C-43.91304153 28.54292038 -45.01819034 32.4704361 -44.7421875 38.671875 C-44.05377755 44.34932339 -42.59340438 48.99195196 -38.8046875 53.359375 C-34.40334834 56.64952795 -30.06557938 57.67624269 -24.6171875 57.421875 C-19.05495737 56.54226652 -15.91834909 54.21281815 -12.5546875 49.671875 C-9.09919466 43.91272027 -8.93339378 37.90727935 -9.8046875 31.359375 C-11.4335281 25.99378245 -14.02019553 22.39344308 -18.8046875 19.359375 C-26.80920019 15.14647358 -34.15596107 17.21612598 -40.0546875 23.671875 Z " fill="#3FCAD6" transform="translate(856.8046875,598.640625)"/>
<path d="M0 0 C204.6 0 409.2 0 620 0 C620 2.31 620 4.62 620 7 C415.4 7 210.8 7 0 7 C0 4.69 0 2.38 0 0 Z " fill="#1D1F3D" transform="translate(138,734)"/>
<path d="M0 0 C2.16544003 1.65485969 4.10455238 3.35306779 6.0234375 5.28515625 C6.56484375 5.79949219 7.10625 6.31382812 7.6640625 6.84375 C8.8148636 7.95977414 9.92585062 9.11675731 11.0234375 10.28515625 C9.29344343 15.47513847 3.83290315 17.0842622 -0.7890625 19.59765625 C-1.80033203 20.17322266 -2.81160156 20.74878906 -3.85351562 21.34179688 C-5.3162793 22.14327148 -5.3162793 22.14327148 -6.80859375 22.9609375 C-7.70296143 23.45505127 -8.5973291 23.94916504 -9.51879883 24.45825195 C-11.9765625 25.28515625 -11.9765625 25.28515625 -14.14916992 24.5012207 C-14.75220947 24.09991943 -15.35524902 23.69861816 -15.9765625 23.28515625 C-21.47666529 20.69582214 -26.1051609 21.0984778 -31.9765625 22.28515625 C-36.5410363 24.61595138 -38.38103925 28.1659362 -40.25 32.78515625 C-41.90525088 38.48064314 -41.53825312 43.48183374 -39.7890625 49.09765625 C-37.38247829 53.32992504 -34.8856826 56.23011619 -30.6015625 58.59765625 C-26.63766475 59.63581995 -22.91000772 60.30971696 -19.1484375 58.31640625 C-18.55546875 57.93484375 -17.9625 57.55328125 -17.3515625 57.16015625 C-16.2378125 56.54140625 -15.1240625 55.92265625 -13.9765625 55.28515625 C-10.44976983 56.34043958 -7.32418818 58.10518329 -4.11328125 59.88671875 C-3.22705078 60.3765625 -2.34082031 60.86640625 -1.42773438 61.37109375 C-0.51572266 61.87898437 0.39628906 62.386875 1.3359375 62.91015625 C2.73295898 63.68359375 2.73295898 63.68359375 4.15820312 64.47265625 C6.44807219 65.74089142 8.73641465 67.01179787 11.0234375 68.28515625 C8.01556346 74.72275064 1.811009 80.54271745 -4.8515625 83.16015625 C-6.21847469 83.56364238 -7.59477512 83.93599492 -8.9765625 84.28515625 C-9.88148438 84.55972656 -10.78640625 84.83429688 -11.71875 85.1171875 C-22.26601515 88.11699408 -32.76737764 88.84375662 -42.9765625 84.28515625 C-49.90668485 80.34551822 -54.83674572 74.25206998 -59.9765625 68.28515625 C-60.73839844 67.51558594 -60.73839844 67.51558594 -61.515625 66.73046875 C-68.04086951 59.9650312 -69.73047388 49.3550387 -69.9765625 40.28515625 C-69.72459066 36.90992087 -69.16728628 33.65893439 -68.4765625 30.34765625 C-68.29641602 29.47665283 -68.11626953 28.60564941 -67.93066406 27.70825195 C-64.80380555 13.9416027 -56.83475006 6.08124017 -45.4140625 -1.52734375 C-31.64349354 -9.94059547 -13.80265997 -7.95192615 0 0 Z " fill="#40CAD7" transform="translate(766.9765625,595.71484375)"/>
<path d="M0 0 C8.91 0 17.82 0 27 0 C27 9.24 27 18.48 27 28 C31.95 28 36.9 28 42 28 C42 36.91 42 45.82 42 55 C37.05 55 32.1 55 27 55 C27 75.46 27 95.92 27 117 C18.09 117 9.18 117 0 117 C-0.33 96.87 -0.66 76.74 -1 56 C-4.63 55.67 -8.26 55.34 -12 55 C-12 46.09 -12 37.18 -12 28 C-8.04 28 -4.08 28 0 28 C0 18.76 0 9.52 0 0 Z " fill="#21203D" transform="translate(228,563)"/>
<path d="M0 0 C1.6601011 0.07871091 3.32295467 0.10952216 4.9848938 0.10006714 C5.96347351 0.09710632 6.94205322 0.09414551 7.95028687 0.09109497 C9.01228302 0.08278656 10.07427917 0.07447815 11.16845703 0.06591797 C12.29578247 0.06124512 13.42310791 0.05657227 14.58459473 0.05175781 C17.02963348 0.04126444 19.47466369 0.02860478 21.91968155 0.01403427 C25.78547563 -0.00796996 29.65122084 -0.02205997 33.51705933 -0.03366089 C44.50737173 -0.06728192 55.49760441 -0.10882705 66.48779297 -0.17138672 C73.21084441 -0.20956501 79.93379557 -0.23203055 86.65694809 -0.24569321 C89.222292 -0.25376676 91.78762449 -0.2674025 94.35290909 -0.28662491 C97.93215544 -0.31298619 101.51100097 -0.32098631 105.09033203 -0.32470703 C106.68939896 -0.34324234 106.68939896 -0.34324234 108.32077026 -0.3621521 C109.78018036 -0.35813385 109.78018036 -0.35813385 111.26907349 -0.35403442 C112.53832011 -0.36013072 112.53832011 -0.36013072 113.83320808 -0.36635017 C116.46315671 0.07830818 117.34217994 0.96561281 119 3 C118.67 3.99 118.34 4.98 118 6 C116.35 6.33 114.7 6.66 113 7 C113 16.9 113 26.8 113 37 C108 38 108 38 106 37 C106 27.1 106 17.2 106 7 C103.36 7 100.72 7 98 7 C98.03552979 7.90355225 98.07105957 8.80710449 98.10766602 9.73803711 C98.23661797 13.07937816 98.36097487 16.42082359 98.48217773 19.76245117 C98.53566237 21.21076301 98.59099659 22.65900775 98.64819336 24.10717773 C98.72992512 26.18458582 98.80507768 28.2621417 98.87890625 30.33984375 C98.9260376 31.59144287 98.97316895 32.84304199 99.02172852 34.13256836 C99 37 99 37 98 38 C95.5625 38.1875 95.5625 38.1875 93 38 C91 36 91 36 90.77294922 34.12060547 C90.78865967 33.00516357 90.78865967 33.00516357 90.8046875 31.8671875 C90.81435547 30.65869141 90.81435547 30.65869141 90.82421875 29.42578125 C90.84935547 28.16314453 90.84935547 28.16314453 90.875 26.875 C90.88402344 26.02550781 90.89304687 25.17601562 90.90234375 24.30078125 C90.92594353 22.20040116 90.96181517 20.10016556 91 18 C87.7 18.99 84.4 19.98 81 21 C81 22.98 81 24.96 81 27 C81.598125 27.28875 82.19625 27.5775 82.8125 27.875 C85 29 85 29 88 31 C87.67 32.65 87.34 34.3 87 36 C84.9375 36.875 84.9375 36.875 82 37 C77.18424374 34.14426707 73.87315271 30.28890176 72 25 C71.4375 21.9375 71.4375 21.9375 72 19 C76.39669591 14.02479147 81.59724919 12.35548769 88 11 C88.99 11 89.98 11 91 11 C91 9.68 91 8.36 91 7 C83.08 7 75.16 7 67 7 C67 16.9 67 26.8 67 37 C65.35 37.33 63.7 37.66 62 38 C60 36 60 36 59.77294922 34.12060547 C59.78342285 33.37697754 59.79389648 32.63334961 59.8046875 31.8671875 C59.81113281 31.06152344 59.81757812 30.25585938 59.82421875 29.42578125 C59.84935547 28.16314453 59.84935547 28.16314453 59.875 26.875 C59.88402344 26.02550781 59.89304687 25.17601562 59.90234375 24.30078125 C59.92594353 22.20040116 59.96181517 20.10016556 60 18 C55.0138505 21.00951926 55.0138505 21.00951926 51.8125 25.6875 C50 29 50 29 47 30 C45.515 29.505 45.515 29.505 44 29 C42.68171639 25.76421296 42.92163955 22.44785988 43 19 C41.05396726 18.40929986 41.05396726 18.40929986 39 18 C37.58816215 19.18454572 37.58816215 19.18454572 37.875 22.5625 C38.53990443 27.8913717 42.08389551 30.30050806 46.06640625 33.53125 C46.70449219 34.0159375 47.34257813 34.500625 48 35 C47.34 35.99 46.68 36.98 46 38 C40.55366085 37.77770044 37.50868275 36.55883043 33.515625 32.80859375 C30.21719236 28.87257748 29 24.90078886 29 19.8125 C30.35210231 16.00971224 31.72712619 14.38647049 35 12 C39.36369999 10.71144366 42.75176047 10.44227596 46.9375 12.3125 C49 14 49 14 51 16 C51.40992188 15.566875 51.81984375 15.13375 52.2421875 14.6875 C52.78101563 14.130625 53.31984375 13.57375 53.875 13 C54.40867187 12.443125 54.94234375 11.88625 55.4921875 11.3125 C57 10 57 10 59 10 C59 8.68 59 7.36 59 6 C57.75992188 6.0721875 56.51984375 6.144375 55.2421875 6.21875 C39.15480053 7.08470894 23.10414225 7.10627099 7 7 C7.495 8.485 7.495 8.485 8 10 C8.58007812 9.95359375 9.16015625 9.9071875 9.7578125 9.859375 C15.38203957 9.59950972 18.64797649 10.06245492 23 14 C25.92578285 18.38867428 26.63073449 21.77391419 26 27 C24.54422073 31.61863304 22.66514306 34.9648839 18.5 37.5625 C15 39 15 39 12.5625 38.75 C12.046875 38.5025 11.53125 38.255 11 38 C10.375 36.125 10.375 36.125 10 34 C12.22189824 31.77810176 14.08482708 31.07401108 17 30 C17.92221976 25.29667924 18.27536232 22.29790661 16 18 C14.94689723 16.72996677 14.94689723 16.72996677 12.5625 16.8125 C9.83265325 16.73160017 9.83265325 16.73160017 8 19 C7.64792064 20.91678271 7.64792064 20.91678271 7.62109375 23.09765625 C7.58693359 23.89880859 7.55277344 24.69996094 7.51757812 25.52539062 C7.49115234 26.36263672 7.46472656 27.19988281 7.4375 28.0625 C7.11993243 36.88006757 7.11993243 36.88006757 6 38 C3.5 38.125 3.5 38.125 1 38 C-0.94090826 36.05909174 -0.39919435 32.52706098 -0.5625 29.9375 C-0.64628906 28.64714844 -0.73007812 27.35679687 -0.81640625 26.02734375 C-0.87699219 25.02832031 -0.93757812 24.02929688 -1 23 C-1.76183594 23.495 -2.52367187 23.99 -3.30859375 24.5 C-6 26 -6 26 -9.0625 26 C-12.9220187 24.68612129 -14.16898087 23.66203825 -16 20 C-15.71317679 15.26741701 -14.20717774 11.15968112 -12 7 C-14.64 7 -17.28 7 -20 7 C-19.98428955 8.30203369 -19.98428955 8.30203369 -19.96826172 9.63037109 C-19.93420284 12.84699528 -19.90911233 16.06352767 -19.89013672 19.28027344 C-19.88007123 20.67320781 -19.86641766 22.06612102 -19.84912109 23.45898438 C-19.8248978 25.4595436 -19.81459186 27.46025615 -19.8046875 29.4609375 C-19.78897705 31.26763916 -19.78897705 31.26763916 -19.77294922 33.11083984 C-20 36 -20 36 -22 38 C-24.625 37.625 -24.625 37.625 -27 37 C-28.19600901 32.50832172 -27.9185704 28.26730207 -27.5625 23.6875 C-27.51029297 22.94693359 -27.45808594 22.20636719 -27.40429688 21.44335938 C-27.27549848 19.62847291 -27.13856738 17.81416675 -27 16 C-33.435 17.485 -33.435 17.485 -40 19 C-38.535625 20.051875 -37.07125 21.10375 -35.5625 22.1875 C-31.24859614 25.28621968 -31.24859614 25.28621968 -30.08984375 28.61328125 C-30.06019531 29.40089844 -30.03054688 30.18851563 -30 31 C-30.66 31.66 -31.32 32.32 -32 33 C-36.47910419 32.78458703 -38.36053369 31.0342987 -41.3125 27.8125 C-44.78678597 24.14616807 -48.25953049 21.16781021 -52.46875 18.38671875 C-54.37171167 16.66337336 -54.79683552 15.54463511 -55 13 C-54.34 12.34 -53.68 11.68 -53 11 C-50.38419521 11.3269756 -48.35921863 11.82039068 -46 13 C-45.34 11.02 -44.68 9.04 -44 7 C-44.75925781 7.01160156 -45.51851562 7.02320313 -46.30078125 7.03515625 C-47.29464844 7.04417969 -48.28851562 7.05320312 -49.3125 7.0625 C-50.29863281 7.07410156 -51.28476562 7.08570313 -52.30078125 7.09765625 C-55 7 -55 7 -58 6 C-58.33 5.01 -58.66 4.02 -59 3 C-58.67 2.34 -58.34 1.68 -58 1 C-44.25027771 0.15012754 -30.55189179 -0.09258845 -16.78076172 0.03710938 C-15.53955566 0.04548828 -14.29834961 0.05386719 -13.01953125 0.0625 C-11.90682861 0.07410156 -10.79412598 0.08570313 -9.64770508 0.09765625 C-1.03860334 -0.21987632 -1.03860334 -0.21987632 0 0 Z M-36 6 C-36.33 7.65 -36.66 9.3 -37 11 C-32.545 10.505 -32.545 10.505 -28 10 C-27.67 8.68 -27.34 7.36 -27 6 C-29.97 6 -32.94 6 -36 6 Z M-4 7.6875 C-7.36794203 11.58168297 -8.29168836 14.89545369 -8 20 C-2.96701668 16.29924843 -2.96701668 16.29924843 0 11 C0.16750414 8.33290931 0.16750414 8.33290931 0 6 C-2.18136995 5.78504302 -2.18136995 5.78504302 -4 7.6875 Z " fill="#3A4775" transform="translate(676,782)"/>
<path d="M0 0 C8.91 0 17.82 0 27 0 C28.82238662 1.82238662 28.11997696 4.34756083 28.12442017 6.7724762 C28.12082489 7.60109665 28.11722961 8.4297171 28.11352539 9.28344727 C28.11367142 10.15166107 28.11381744 11.01987488 28.1139679 11.91439819 C28.11326846 14.79842586 28.10547463 17.6823898 28.09765625 20.56640625 C28.09579218 22.56037867 28.09436823 24.55435155 28.09336853 26.54832458 C28.08954248 31.80745702 28.07971145 37.06656203 28.06866455 42.32568359 C28.0584523 47.68782175 28.05387131 53.04996431 28.04882812 58.41210938 C28.03808926 68.94142027 28.02049176 79.47070357 28 90 C18.76 90 9.52 90 0 90 C0 60.3 0 30.6 0 0 Z " fill="#45CBD8" transform="translate(657,591)"/>
<path d="M0 0 C9.24 0 18.48 0 28 0 C28 29.37 28 58.74 28 89 C18.76 89 9.52 89 0 89 C0 59.63 0 30.26 0 0 Z " fill="#292844" transform="translate(179,591)"/>
<path d="M0 0 C8.91 0 17.82 0 27 0 C27 29.7 27 59.4 27 90 C18.09 90 9.18 90 0 90 C0 60.3 0 30.6 0 0 Z " fill="#263467" transform="translate(1115,590)"/>
<path d="M0 0 C8.91 0 17.82 0 27 0 C27 29.37 27 58.74 27 89 C18.09 89 9.18 89 0 89 C0 59.63 0 30.26 0 0 Z " fill="#22213E" transform="translate(138,591)"/>
<path d="M0 0 C4.62 0 9.24 0 14 0 C18.455 11.385 18.455 11.385 23 23 C25.588914 16.17938947 25.588914 16.17938947 28.17553711 9.35791016 C28.6590564 8.08633057 28.6590564 8.08633057 29.15234375 6.7890625 C29.48226318 5.91975098 29.81218262 5.05043945 30.15209961 4.15478516 C31 2 31 2 32 0 C36.62 0 41.24 0 46 0 C46 12.87 46 25.74 46 39 C42.04 39 38.08 39 34 39 C33.67 34.38 33.34 29.76 33 25 C31.35 29.62 29.7 34.24 28 39 C24.7 39 21.4 39 18 39 C15.84370792 33.6811462 13.81672901 28.45018704 12 23 C11.67 28.28 11.34 33.56 11 39 C7.37 39 3.74 39 0 39 C0 26.13 0 13.26 0 0 Z " fill="#2F3C6D" transform="translate(455,780)"/>
<path d="M0 0 C0.87269531 -0.03738281 1.74539063 -0.07476563 2.64453125 -0.11328125 C6.11940579 0.46853338 6.98264746 1.56504703 9.1875 4.3125 C11.00572008 6.98953432 12.69942141 9.73197369 14.375 12.5 C15.26325859 13.95247434 16.15252822 15.40433103 17.04296875 16.85546875 C17.43121826 17.49508545 17.81946777 18.13470215 18.21948242 18.79370117 C19.10192666 20.29900675 19.10192666 20.29900675 20.1875 21.3125 C20.5175 14.3825 20.8475 7.4525 21.1875 0.3125 C29.68359375 0.21484375 29.68359375 0.21484375 32.1875 0.3125 C33.1875 1.3125 33.1875 1.3125 33.30102539 5.18969727 C33.30086621 6.91944167 33.29516849 8.64919081 33.28515625 10.37890625 C33.2837413 11.28752914 33.28232635 12.19615204 33.28086853 13.13230896 C33.27525193 16.04657221 33.26269665 18.96075981 33.25 21.875 C33.24498714 23.84570202 33.24042386 25.81640524 33.23632812 27.78710938 C33.22527711 32.62893559 33.20800138 37.47070495 33.1875 42.3125 C28.71351973 42.92057283 24.64271209 43.14173825 20.1875 42.3125 C16.77979362 39.52417857 14.93693883 36.1607591 12.875 32.3125 C12.31361328 31.35859375 11.75222656 30.4046875 11.17382812 29.421875 C9.80194463 27.07677501 8.48864367 24.69757515 7.1875 22.3125 C6.8575 28.9125 6.5275 35.5125 6.1875 42.3125 C2.2275 42.3125 -1.7325 42.3125 -5.8125 42.3125 C-5.83714638 36.49178378 -5.8553343 30.67109766 -5.86743164 24.8503418 C-5.87247267 22.86856559 -5.87930538 20.88679311 -5.88793945 18.9050293 C-5.90001515 16.06297891 -5.90573045 13.22097753 -5.91015625 10.37890625 C-5.91531754 9.48724258 -5.92047882 8.59557892 -5.92579651 7.67689514 C-5.92599177 5.55509399 -5.8746003 3.4333922 -5.8125 1.3125 C-4.16284831 -0.33715169 -2.2648645 0.06300502 0 0 Z " fill="#2F3D6E" transform="translate(1098.8125,776.6875)"/>
<path d="M0 0 C3.18079949 2.67566011 4.82739576 5.28302853 5.8125 9.375 C5.874375 10.24125 5.93625 11.1075 6 12 C4.10489301 12.08160748 2.20875496 12.13946459 0.3125 12.1875 C-1.27111328 12.23970703 -1.27111328 12.23970703 -2.88671875 12.29296875 C-6.38095053 11.96415146 -8.08955109 10.87276764 -11 9 C-14.08695809 9.12347832 -16.14609621 9.49943571 -18.8125 11.0625 C-21.26560718 15.06493803 -21.37146137 19.4466161 -20.3125 23.875 C-18.73286836 26.43249885 -17.86687127 27.12401156 -15 28 C-11.08189921 28.3265084 -8.31353774 28.20902516 -5 26 C-4.67 25.34 -4.34 24.68 -4 24 C-7.63 24 -11.26 24 -15 24 C-15 21.03 -15 18.06 -15 15 C-7.74 15 -0.48 15 7 15 C7.71816057 28.93231506 7.71816057 28.93231506 3.5390625 33.63671875 C-2.10211599 38.6336002 -7.52958305 40.24529727 -15 40 C-22.0334529 39.09719858 -26.32427793 36.65019915 -30.66015625 31.0390625 C-34.18632516 25.67270632 -34.67925362 20.26186929 -34 14 C-32.44322033 7.21341362 -29.213768 3.19476839 -23.4375 -0.75 C-16.12995823 -4.49745732 -7.08601188 -4.12192848 0 0 Z " fill="#323F6F" transform="translate(913,780)"/>
<path d="M0 0 C19.2689207 0.02859456 19.2689207 0.02859456 24.53027344 5.25366211 C27.19262691 8.79607131 27.68196378 11.74188489 27.36230469 16.11303711 C26.59304371 20.164986 24.90465805 22.41488629 21.78027344 25.00366211 C21.18214844 25.39553711 20.58402344 25.78741211 19.96777344 26.19116211 C21.25540338 30.8734528 23.26890815 34.46684278 25.94433594 38.45678711 C26.96777344 40.19116211 26.96777344 40.19116211 26.96777344 42.19116211 C22.67777344 42.19116211 18.38777344 42.19116211 13.96777344 42.19116211 C11.32777344 37.57116211 8.68777344 32.95116211 5.96777344 28.19116211 C5.63777344 32.81116211 5.30777344 37.43116211 4.96777344 42.19116211 C1.00777344 42.19116211 -2.95222656 42.19116211 -7.03222656 42.19116211 C-7.05687294 36.37044588 -7.07506086 30.54975977 -7.0871582 24.72900391 C-7.09219924 22.74722769 -7.09903194 20.76545522 -7.10766602 18.78369141 C-7.11974171 15.94164102 -7.12545701 13.09963964 -7.12988281 10.25756836 C-7.1350441 9.36590469 -7.14020538 8.47424103 -7.14552307 7.55555725 C-7.14571833 5.4337561 -7.09432686 3.31205431 -7.03222656 1.19116211 C-5.15980045 -0.681264 -2.49131285 0.02497623 0 0 Z M4.96777344 11.19116211 C4.96777344 13.83116211 4.96777344 16.47116211 4.96777344 19.19116211 C10.28947838 19.48678578 10.28947838 19.48678578 14.96777344 17.19116211 C14.58873136 13.90040214 14.58873136 13.90040214 12.96777344 11.19116211 C10.29718493 11.0500105 7.64345106 11.14869104 4.96777344 11.19116211 Z " fill="#303D6E" transform="translate(1017.0322265625,776.808837890625)"/>
<path d="M0 0 C3.23044622 3.23044622 3.98388874 4.96194235 4.3125 9.5625 C4.08503426 12.7470203 3.7520025 14.42265235 2.0625 17.0625 C4.3725 17.0625 6.6825 17.0625 9.0625 17.0625 C9.0625 18.0525 9.0625 19.0425 9.0625 20.0625 C6.4225 20.0625 3.7825 20.0625 1.0625 20.0625 C1.30697876 20.85092285 1.30697876 20.85092285 1.55639648 21.65527344 C2.19151421 24.67614212 2.17419006 27.49068682 2.16015625 30.578125 C2.15693359 31.82851563 2.15371094 33.07890625 2.15039062 34.3671875 C2.13782227 36.32011719 2.13782227 36.32011719 2.125 38.3125 C2.12048828 39.62992188 2.11597656 40.94734375 2.11132812 42.3046875 C2.09954316 45.55733741 2.08309011 48.80989584 2.0625 52.0625 C0.7425 52.7225 -0.5775 53.3825 -1.9375 54.0625 C-2.9375 53.0625 -2.9375 53.0625 -3.05102539 49.91967773 C-3.05086633 48.52847303 -3.04517506 47.13726239 -3.03515625 45.74609375 C-3.0337413 45.01503922 -3.03232635 44.28398468 -3.03086853 43.53077698 C-3.02525408 41.18714368 -3.01269922 38.84360461 -3 36.5 C-2.99498686 34.91471492 -2.99042363 33.32942834 -2.98632812 31.74414062 C-2.97612921 27.85019457 -2.95655687 23.95645323 -2.9375 20.0625 C-11.1875 20.0625 -19.4375 20.0625 -27.9375 20.0625 C-27.6075 22.7025 -27.2775 25.3425 -26.9375 28.0625 C-26.40125 27.5675 -25.865 27.0725 -25.3125 26.5625 C-22.21897204 24.60869287 -20.54380834 24.54731309 -16.9375 25.0625 C-13.44401175 27.28562889 -11.46760303 29.24064265 -9.9375 33.0625 C-9.2223923 39.21056878 -9.22107824 44.90746336 -12.9375 50.0625 C-15.11497021 52.29144704 -17.30903171 54.37789078 -19.9375 56.0625 C-20.9275 56.0625 -21.9175 56.0625 -22.9375 56.0625 C-22.9375 55.0725 -22.9375 54.0825 -22.9375 53.0625 C-21.4348922 51.8212153 -19.93026845 50.582089 -18.40625 49.3671875 C-15.6551943 46.92343058 -15.05388246 44.47173982 -14.7578125 40.88671875 C-14.63266037 36.63849924 -14.79304136 33.81530262 -16.9375 30.0625 C-20.33830577 30.16657917 -20.33830577 30.16657917 -23.9375 31.0625 C-27.90614068 35.95715684 -28.10384273 41.20035928 -28.5 47.3125 C-28.58378906 48.57578125 -28.66757812 49.8390625 -28.75390625 51.140625 C-28.84478516 52.58695313 -28.84478516 52.58695313 -28.9375 54.0625 C-30.2575 53.7325 -31.5775 53.4025 -32.9375 53.0625 C-32.9375 48.1125 -32.9375 43.1625 -32.9375 38.0625 C-34.01 39.361875 -35.0825 40.66125 -36.1875 42 C-39.33837146 45.81740196 -39.33837146 45.81740196 -42 46.90625 C-44.939615 47.14331573 -46.58536993 45.69592366 -48.9375 44.0625 C-48.56819663 36.86108436 -44.31651682 31.38487356 -39.3125 26.5 C-36.9375 25.0625 -36.9375 25.0625 -32.9375 25.0625 C-32.6075 23.4125 -32.2775 21.7625 -31.9375 20.0625 C-38.8675 20.0625 -45.7975 20.0625 -52.9375 20.0625 C-52.9375 19.0725 -52.9375 18.0825 -52.9375 17.0625 C-46.9975 16.7325 -41.0575 16.4025 -34.9375 16.0625 C-35.5975 14.7425 -36.2575 13.4225 -36.9375 12.0625 C-37.27084493 8.3957058 -37.2332401 5.81054849 -35.875 2.375 C-27.07674166 -8.12614705 -10.5896542 -6.98466554 0 0 Z M-31.4375 3.375 C-33.27063268 6.65936272 -33.55544663 8.35482023 -32.9375 12.0625 C-31.37817319 14.82522507 -31.37817319 14.82522507 -28.9375 17.0625 C-25.95193973 17.74844624 -25.95193973 17.74844624 -22.640625 17.55078125 C-20.83271484 17.52661133 -20.83271484 17.52661133 -18.98828125 17.50195312 C-17.73402344 17.46005859 -16.47976563 17.41816406 -15.1875 17.375 C-13.91777344 17.35244141 -12.64804687 17.32988281 -11.33984375 17.30664062 C-8.20454227 17.24770639 -5.07161405 17.16547079 -1.9375 17.0625 C0.04074528 12.54962795 0.44664372 9.90700302 -0.9375 5.0625 C-5.70619489 -0.04681595 -10.38931382 -1.61493762 -17.375 -2.25 C-22.99241917 -1.75724393 -27.25800583 -0.49103211 -31.4375 3.375 Z " fill="#5CC5D8" transform="translate(853.9375,765.9375)"/>
<path d="M0 0 C1.50046875 0.00386719 1.50046875 0.00386719 3.03125 0.0078125 C4.0315625 0.00523437 5.031875 0.00265625 6.0625 0 C8.53125 0.1328125 8.53125 0.1328125 9.53125 1.1328125 C9.67749162 3.19225628 9.75866837 5.25638482 9.8125 7.3203125 C9.84988281 8.57585938 9.88726563 9.83140625 9.92578125 11.125 C9.97945561 13.13311053 10.03146886 15.14126027 10.08349609 17.14941406 C10.13513807 19.08148722 10.19247915 21.01340543 10.25 22.9453125 C10.28029297 24.10675781 10.31058594 25.26820313 10.34179688 26.46484375 C10.23273037 29.05270787 10.23273037 29.05270787 11.53125 30.1328125 C15.03125 30.29947917 15.03125 30.29947917 18.53125 30.1328125 C20.35854024 28.30552226 19.74835832 25.40453192 19.8125 22.9453125 C19.84988281 21.68976562 19.88726563 20.43421875 19.92578125 19.140625 C19.96148885 17.80470212 19.99663818 16.46876422 20.03125 15.1328125 C20.09872481 12.52841114 20.17246369 9.92446318 20.25 7.3203125 C20.28029297 6.15886719 20.31058594 4.99742187 20.34179688 3.80078125 C20.53125 1.1328125 20.53125 1.1328125 21.53125 0.1328125 C23.36240883 0.03430079 25.19744933 0.00308621 27.03125 0.0078125 C28.0315625 0.00523437 29.031875 0.00265625 30.0625 0 C32.53125 0.1328125 32.53125 0.1328125 33.53125 1.1328125 C33.81555022 5.29221086 33.76320699 9.46487749 33.78125 13.6328125 C33.801875 14.79296875 33.8225 15.953125 33.84375 17.1484375 C33.91121905 32.05909678 33.91121905 32.05909678 29.22045898 37.71264648 C24.99029518 41.53705568 20.72742106 42.92946333 15.15625 43.4453125 C9.18750954 42.93076591 5.11483988 41.57869892 0.65625 37.5078125 C-4.12660304 29.91151649 -3.75669362 21.36612103 -3.65625 12.6328125 C-3.6552832 10.98925781 -3.6552832 10.98925781 -3.65429688 9.3125 C-3.60338632 0.19385306 -3.60338632 0.19385306 0 0 Z " fill="#3B4876" transform="translate(927.46875,776.8671875)"/>
<path d="M0 0 C3.35286458 0.03255208 6.70572917 0.06510417 10.05859375 0.09765625 C13.82476955 8.86275879 17.18088362 17.73335305 20.37109375 26.72265625 C20.829867 28.00007584 21.28885044 29.27741997 21.74804688 30.5546875 C22.17666016 31.75738281 22.60527344 32.96007812 23.046875 34.19921875 C23.62755737 35.82851318 23.62755737 35.82851318 24.2199707 37.49072266 C25.05859375 40.09765625 25.05859375 40.09765625 25.05859375 42.09765625 C20.76859375 42.09765625 16.47859375 42.09765625 12.05859375 42.09765625 C11.72859375 40.11765625 11.39859375 38.13765625 11.05859375 36.09765625 C6.10859375 36.09765625 1.15859375 36.09765625 -3.94140625 36.09765625 C-4.60140625 38.07765625 -5.26140625 40.05765625 -5.94140625 42.09765625 C-9.90140625 42.09765625 -13.86140625 42.09765625 -17.94140625 42.09765625 C-16.48894026 33.98577071 -13.64169711 26.47201914 -10.71850586 18.80175781 C-9.87119531 16.57741364 -9.03356495 14.34959839 -8.19726562 12.12109375 C-7.66331497 10.70682176 -7.12882958 9.29275151 -6.59375 7.87890625 C-6.34270004 7.21234009 -6.09165009 6.54577393 -5.83299255 5.85900879 C-3.63998262 0.12084936 -3.63998262 0.12084936 0 0 Z M3.05859375 15.09765625 C2.55244077 16.36605151 2.05390276 17.63748727 1.55859375 18.91015625 C1.28015625 19.61785156 1.00171875 20.32554687 0.71484375 21.0546875 C-0.09432245 23.21606841 -0.09432245 23.21606841 0.05859375 26.09765625 C2.36859375 26.09765625 4.67859375 26.09765625 7.05859375 26.09765625 C6.06859375 22.46765625 5.07859375 18.83765625 4.05859375 15.09765625 C3.72859375 15.09765625 3.39859375 15.09765625 3.05859375 15.09765625 Z " fill="#313F6F" transform="translate(981.94140625,776.90234375)"/>
<path d="M0 0 C1.09054687 0.02320313 2.18109375 0.04640625 3.3046875 0.0703125 C4.40039062 0.08835937 5.49609375 0.10640625 6.625 0.125 C7.46804688 0.14820313 8.31109375 0.17140625 9.1796875 0.1953125 C11.94151862 5.51053466 14.24699617 10.75523151 16.1953125 16.4140625 C16.45600525 17.15740845 16.716698 17.90075439 16.98529053 18.66662598 C17.80508205 21.00781296 18.6175053 23.35147635 19.4296875 25.6953125 C19.98909491 27.29704566 20.54898652 28.89860981 21.109375 30.5 C22.47174249 34.396509 23.82751478 38.29525459 25.1796875 42.1953125 C20.8896875 42.1953125 16.5996875 42.1953125 12.1796875 42.1953125 C11.5196875 40.2153125 10.8596875 38.2353125 10.1796875 36.1953125 C5.2296875 36.1953125 0.2796875 36.1953125 -4.8203125 36.1953125 C-5.1503125 38.1753125 -5.4803125 40.1553125 -5.8203125 42.1953125 C-10.1103125 42.1953125 -14.4003125 42.1953125 -18.8203125 42.1953125 C-16.54843297 34.2475848 -13.85011127 26.48913478 -11.00415039 18.73339844 C-10.2498003 16.67343294 -9.50466529 14.61027388 -8.75976562 12.546875 C-8.27919971 11.23156833 -7.79809982 9.91645661 -7.31640625 8.6015625 C-6.88513428 7.41884766 -6.4538623 6.23613281 -6.00952148 5.01757812 C-4.5050615 1.44714959 -3.95495734 0.27388901 0 0 Z M2.1796875 15.1953125 C0.6946875 20.6403125 0.6946875 20.6403125 -0.8203125 26.1953125 C1.8196875 26.1953125 4.4596875 26.1953125 7.1796875 26.1953125 C6.73092134 24.54684481 6.27038262 22.90157795 5.8046875 21.2578125 C5.42183594 19.88302734 5.42183594 19.88302734 5.03125 18.48046875 C4.41308646 16.02786163 4.41308646 16.02786163 2.1796875 15.1953125 Z " fill="#303D6E" transform="translate(1064.8203125,776.8046875)"/>
<path d="M0 0 C4.269375 -0.020625 8.53875 -0.04125 12.9375 -0.0625 C14.95991821 -0.07615601 14.95991821 -0.07615601 17.02319336 -0.09008789 C18.6030603 -0.09383423 18.6030603 -0.09383423 20.21484375 -0.09765625 C21.84087524 -0.10551147 21.84087524 -0.10551147 23.49975586 -0.11352539 C26 0 26 0 27 1 C27.14193337 4.00331018 27.04236378 6.99217134 27 10 C22.05 10 17.1 10 12 10 C12 11.98 12 13.96 12 16 C16.29 16 20.58 16 25 16 C25 19.3 25 22.6 25 26 C20.71 26 16.42 26 12 26 C12 27.98 12 29.96 12 32 C12.99902344 31.98839844 13.99804688 31.97679687 15.02734375 31.96484375 C16.31769531 31.95582031 17.60804687 31.94679688 18.9375 31.9375 C20.22527344 31.92589844 21.51304688 31.91429687 22.83984375 31.90234375 C26 32 26 32 27 33 C27 35.97 27 38.94 27 42 C18.09 42 9.18 42 0 42 C0 28.14 0 14.28 0 0 Z " fill="#344070" transform="translate(1205,777)"/>
<path d="M0 0 C4.269375 -0.020625 8.53875 -0.04125 12.9375 -0.0625 C14.95991821 -0.07615601 14.95991821 -0.07615601 17.02319336 -0.09008789 C18.6030603 -0.09383423 18.6030603 -0.09383423 20.21484375 -0.09765625 C21.84087524 -0.10551147 21.84087524 -0.10551147 23.49975586 -0.11352539 C26 0 26 0 27 1 C27.14193337 4.00331018 27.04236378 6.99217134 27 10 C22.05 10 17.1 10 12 10 C12 11.98 12 13.96 12 16 C16.29 16 20.58 16 25 16 C25 19.3 25 22.6 25 26 C20.71 26 16.42 26 12 26 C12 27.98 12 29.96 12 32 C12.99902344 31.98839844 13.99804688 31.97679687 15.02734375 31.96484375 C16.31769531 31.95582031 17.60804687 31.94679688 18.9375 31.9375 C20.22527344 31.92589844 21.51304688 31.91429687 22.83984375 31.90234375 C26 32 26 32 27 33 C27 35.97 27 38.94 27 42 C18.09 42 9.18 42 0 42 C0 28.14 0 14.28 0 0 Z " fill="#344070" transform="translate(1173,777)"/>
<path d="M0 0 C4.27213638 3.26031461 4.03108433 4.18650597 5 10 C0.71 10 -3.58 10 -8 10 C-8 9.01 -8 8.02 -8 7 C-9.65 7 -11.3 7 -13 7 C-13 8.32 -13 9.64 -13 11 C-12.43152344 11.17015625 -11.86304688 11.3403125 -11.27734375 11.515625 C1.31104856 15.46657284 1.31104856 15.46657284 5 21 C5.3305085 25.09830543 5.39988545 27.900315 4 31.75 C0.2952779 35.91781236 -4.01337077 37.75167135 -9.5 38.4375 C-15.05826598 37.74271675 -19.3684561 36.58970944 -23.4375 32.625 C-25 30 -25 30 -26 25 C-21.71 25 -17.42 25 -13 25 C-13 25.99 -13 26.98 -13 28 C-11.02 28 -9.04 28 -7 28 C-7 26.68 -7 25.36 -7 24 C-7.65226562 23.82984375 -8.30453125 23.6596875 -8.9765625 23.484375 C-15.53043303 21.66707757 -20.91659328 20.02430008 -24.9375 14.1875 C-26.28786386 10.13640842 -26.31124559 8.07943071 -25 4 C-18.0504505 -4.09268689 -9.43082007 -4.98232004 0 0 Z " fill="#344171" transform="translate(309,782)"/>
<path d="M0 0 C2.36515939 2.06951447 3.57351442 3.22274614 4.5 6.1875 C4.5 7.5075 4.5 8.8275 4.5 10.1875 C0.54 10.1875 -3.42 10.1875 -7.5 10.1875 C-7.83 9.5275 -8.16 8.8675 -8.5 8.1875 C-9.82 8.1875 -11.14 8.1875 -12.5 8.1875 C-12.17 9.1775 -11.84 10.1675 -11.5 11.1875 C-8.84946054 12.51767381 -8.84946054 12.51767381 -5.6875 13.625 C-1.3832632 15.21353076 1.59663587 16.5650784 4.5 20.1875 C5.87726661 23.97310168 5.89425787 27.22375854 4.375 30.9375 C0.8372958 35.18274504 -1.77681322 37.33540051 -7.3125 38.125 C-13.00241622 38.46368549 -17.72604161 37.60374599 -22.10546875 33.7890625 C-24.89228046 30.71342157 -25.5 29.4242968 -25.5 25.1875 C-21.54 25.1875 -17.58 25.1875 -13.5 25.1875 C-13.17 25.8475 -12.84 26.5075 -12.5 27.1875 C-10.85 27.1875 -9.2 27.1875 -7.5 27.1875 C-7.83 26.1975 -8.16 25.2075 -8.5 24.1875 C-11.12057951 22.9306452 -11.12057951 22.9306452 -14.25 21.875 C-19.64656201 19.72279968 -22.64154133 18.29189048 -25.5 13.1875 C-26.17780715 8.97003329 -25.78753561 6.81049382 -24 2.9375 C-17.5436068 -4.16453253 -8.23954663 -4.26690807 0 0 Z " fill="#323F6F" transform="translate(381.5,781.8125)"/>
<path d="M0 0 C5.28520423 3.04138513 8.20543674 7.13485557 10.5 12.6875 C11.35662049 14.75063229 11.35662049 14.75063229 12.6875 16.375 C15.52227859 17.39639421 17.61765308 17.375 20.6875 17.375 C20.6875 18.365 20.6875 19.355 20.6875 20.375 C18.0475 20.375 15.4075 20.375 12.6875 20.375 C12.79578125 22.31439453 12.79578125 22.31439453 12.90625 24.29296875 C13.43044655 33.99948166 13.84718929 43.6516965 13.6875 53.375 C11.7075 53.87 11.7075 53.87 9.6875 54.375 C8.20844762 51.41689524 8.56559097 48.4202845 8.58984375 45.1796875 C8.5912587 44.47224396 8.59267365 43.76480042 8.59413147 43.03591919 C8.599734 40.77390331 8.61228682 38.51198602 8.625 36.25 C8.63001468 34.71744935 8.63457764 33.18489714 8.63867188 31.65234375 C8.64970423 27.89319112 8.66697048 24.13411228 8.6875 20.375 C6.0475 20.375 3.4075 20.375 0.6875 20.375 C1.0175 30.935 1.3475 41.495 1.6875 52.375 C-0.7875 52.87 -0.7875 52.87 -3.3125 53.375 C-3.3125 45.125 -3.3125 36.875 -3.3125 28.375 C-8.7575 29.86 -8.7575 29.86 -14.3125 31.375 C-13.343125 32.096875 -12.37375 32.81875 -11.375 33.5625 C-9.24108638 35.35761691 -8.36343401 36.25515528 -7.25 38.875 C-7.33489607 42.27084278 -8.16726132 43.74535258 -10.3125 46.375 C-13.00228947 48.31415055 -14.92888624 49.43739827 -18.3046875 49.28515625 C-24.04064643 48.14878703 -27.1926713 45.47481508 -30.50390625 40.6328125 C-32.59484936 37.23776201 -33.3125 35.43419477 -33.3125 31.375 C-31.9925 31.375 -30.6725 31.375 -29.3125 31.375 C-28.97476563 32.07367187 -28.63703125 32.77234375 -28.2890625 33.4921875 C-27.62003906 34.85730469 -27.62003906 34.85730469 -26.9375 36.25 C-26.49664063 37.15492188 -26.05578125 38.05984375 -25.6015625 38.9921875 C-24.40747301 41.47034472 -24.40747301 41.47034472 -22.3125 43.375 C-19.59795044 43.70252234 -17.06019241 43.5058425 -14.3125 43.375 C-13.06692453 42.32534468 -13.06692453 42.32534468 -12.9375 40.0078125 C-13.0272054 37.18986385 -13.0272054 37.18986385 -15.5 35.6796875 C-16.428125 35.20789063 -17.35625 34.73609375 -18.3125 34.25 C-21.125 32.8046875 -21.125 32.8046875 -23.3125 31.375 C-23.3125 30.385 -23.3125 29.395 -23.3125 28.375 C-17.0425 27.055 -10.7725 25.735 -4.3125 24.375 C-3.9825 23.055 -3.6525 21.735 -3.3125 20.375 C-14.8625 20.375 -26.4125 20.375 -38.3125 20.375 C-38.3125 19.385 -38.3125 18.395 -38.3125 17.375 C-23.1325 17.375 -7.9525 17.375 7.6875 17.375 C3.80285541 8.04824551 3.80285541 8.04824551 -3.3125 3.375 C-7.13060088 2.92933317 -10.73927151 2.9487981 -14.4609375 3.95703125 C-16.3125 4.375 -16.3125 4.375 -18.3125 3.375 C-18 1.4375 -18 1.4375 -17.3125 -0.625 C-11.58405171 -2.53448276 -5.53687495 -2.53685715 0 0 Z " fill="#60C6D9" transform="translate(553.3125,765.625)"/>
<path d="M0 0 C1.5631897 0.00785522 1.5631897 0.00785522 3.15795898 0.01586914 C4.28266602 0.0190918 5.40737305 0.02231445 6.56616211 0.02563477 C7.75016602 0.03401367 8.93416992 0.04239258 10.15405273 0.05102539 C11.34192383 0.05553711 12.52979492 0.06004883 13.75366211 0.06469727 C16.69967499 0.07652864 19.64558954 0.09301252 22.59155273 0.11352539 C22.59155273 3.08352539 22.59155273 6.05352539 22.59155273 9.11352539 C17.97155273 9.11352539 13.35155273 9.11352539 8.59155273 9.11352539 C8.59155273 11.09352539 8.59155273 13.07352539 8.59155273 15.11352539 C12.55155273 15.11352539 16.51155273 15.11352539 20.59155273 15.11352539 C20.59155273 18.08352539 20.59155273 21.05352539 20.59155273 24.11352539 C16.63155273 24.11352539 12.67155273 24.11352539 8.59155273 24.11352539 C8.59155273 26.09352539 8.59155273 28.07352539 8.59155273 30.11352539 C13.21155273 30.11352539 17.83155273 30.11352539 22.59155273 30.11352539 C22.59155273 33.08352539 22.59155273 36.05352539 22.59155273 39.11352539 C14.01155273 39.11352539 5.43155273 39.11352539 -3.40844727 39.11352539 C-3.43135512 33.7199995 -3.45128252 28.32664118 -3.46337891 22.93310547 C-3.46841958 21.09683664 -3.47525203 19.26057185 -3.48388672 17.42431641 C-3.49596399 14.79076138 -3.50167808 12.15725923 -3.50610352 9.52368164 C-3.5112648 8.69763931 -3.51642609 7.87159698 -3.52174377 7.02052307 C-3.52193931 5.05116172 -3.47048878 3.08190926 -3.40844727 1.11352539 C-2.40844727 0.11352539 -2.40844727 0.11352539 0 0 Z " fill="#344170" transform="translate(427.408447265625,779.886474609375)"/>
<path d="M0 0 C4.29 0 8.58 0 13 0 C14.98 4.29 16.96 8.58 19 13 C20.98 8.71 22.96 4.42 25 0 C29.29 0 33.58 0 38 0 C36.64772323 4.05683032 35.7283362 6.76269872 33.65234375 10.25 C27.90619813 20.26107661 24.74729213 27.24908426 25 39 C21.04 39 17.08 39 13 39 C13.0825 37.164375 13.165 35.32875 13.25 33.4375 C12.58769467 22.51507487 6.42700672 13.41344264 1.08569336 4.11621094 C0 2 0 2 0 0 Z " fill="#323F6F" transform="translate(316,780)"/>
<path d="M0 0 C1.0374939 0.00303635 1.0374939 0.00303635 2.09594727 0.00613403 C2.80243408 0.00517731 3.5089209 0.00422058 4.23681641 0.00323486 C5.7331552 0.00255321 7.22949694 0.00440649 8.72583008 0.00857544 C11.02374884 0.01392396 13.32147213 0.00863003 15.61938477 0.00222778 C17.06990603 0.00288857 18.52042718 0.00416974 19.97094727 0.00613403 C20.66260986 0.0041098 21.35427246 0.00208557 22.06689453 0 C26.91849503 0.0239943 26.91849503 0.0239943 28.03344727 1.13894653 C28.17538064 4.14225671 28.07581105 7.13111787 28.03344727 10.13894653 C24.40344727 10.13894653 20.77344727 10.13894653 17.03344727 10.13894653 C17.03344727 20.69894653 17.03344727 31.25894653 17.03344727 42.13894653 C13.07344727 42.13894653 9.11344727 42.13894653 5.03344727 42.13894653 C5.03344727 31.57894653 5.03344727 21.01894653 5.03344727 10.13894653 C1.40344727 10.13894653 -2.22655273 10.13894653 -5.96655273 10.13894653 C-6.06420898 3.20535278 -6.06420898 3.20535278 -5.96655273 1.13894653 C-4.28981624 -0.53778996 -2.23800198 0.01106836 0 0 Z " fill="#323F70" transform="translate(1140.966552734375,776.8610534667969)"/>
<path d="M0 0 C10.56 0 21.12 0 32 0 C32 2.97 32 5.94 32 9 C28.7 9 25.4 9 22 9 C22 18.9 22 28.8 22 39 C18.04 39 14.08 39 10 39 C10 29.1 10 19.2 10 9 C6.7 9 3.4 9 0 9 C0 6.03 0 3.06 0 0 Z " fill="#354171" transform="translate(389,780)"/>
<path d="M0 0 C3.93668381 2.8006468 5.68675911 5.9036569 7 10.5 C7 14.48604151 6.53068451 17.31244187 5 21 C2.6875 23.3125 2.6875 23.3125 0 25 C-1.0828125 25.680625 -1.0828125 25.680625 -2.1875 26.375 C-6.67428739 27.37206386 -10.70601309 26.54757904 -15 25 C-17.5 22.625 -17.5 22.625 -19 20 C-19.3609375 19.38769531 -19.721875 18.77539062 -20.09375 18.14453125 C-21.78264051 14.1479757 -21.14983821 10.10086805 -20 6 C-14.97528635 -0.69446465 -7.70060946 -2.26773853 0 0 Z " fill="#45CBD8" transform="translate(678,556)"/>
<path d="M0 0 C3.67395572 3.0758699 5.30561646 4.83157543 6.5625 9.5 C6.71511381 14.07841437 6.01545783 17.30445382 3.6875 21.25 C0.22036534 24.6325704 -2.59538397 25.52301096 -7.3125 25.75 C-12.01792792 25.53064922 -14.81928957 24.57280992 -18.3125 21.25 C-20.97741682 16.77981694 -21.84994497 13.22908419 -20.95703125 8.17578125 C-19.59640563 4.11039684 -16.8934517 1.44934267 -13.5 -1.125 C-8.35000258 -2.59642784 -4.65112529 -2.45719826 0 0 Z " fill="#272642" transform="translate(200.3125,556.75)"/>
<path d="M0 0 C3.48616772 1.97863574 5.53530182 4.75810364 7.3125 8.3125 C7.82343875 12.37081354 8.22928528 16.50826657 6.3359375 20.234375 C3.51721446 23.72751643 0.59268862 25.9984132 -3.87109375 26.61328125 C-8.62737874 26.63801063 -11.92457634 26.53786313 -15.6875 23.3125 C-18.51275163 20.02909946 -19.94081017 17.54970727 -20.0625 13.25 C-19.34514891 5.7178136 -19.34514891 5.7178136 -16.01953125 2.8984375 C-10.62136397 -0.83955841 -6.47153619 -1.65550926 0 0 Z " fill="#2C3A6B" transform="translate(1134.6875,554.6875)"/>
<path d="M0 0 C3.4812511 2.32083406 4.99212405 4.09421919 6.8125 7.875 C7.4857992 12.16444544 7.31855633 15.67644554 5.625 19.6875 C0.76620729 25.55156016 0.76620729 25.55156016 -3.5234375 26.26171875 C-7.85288467 26.45023822 -10.66758542 26.1207778 -14.625 24.25 C-18.50484009 20.65405065 -19.9583009 17.67585011 -20.625 12.4375 C-20.09496956 8.12153784 -18.97414775 5.21380087 -16.1875 1.875 C-10.86833783 -1.78931172 -6.0516031 -2.13585992 0 0 Z " fill="#262542" transform="translate(158.1875,556.125)"/>
<path d="M0 0 C4.79495766 3.64627549 7.83728902 9.46600424 10 15 C10 15.66 10 16.32 10 17 C13.3 17 16.6 17 20 17 C20 17.99 20 18.98 20 20 C19.41992188 19.99097656 18.83984375 19.98195313 18.2421875 19.97265625 C14.77036923 20.10442493 12.02396863 20.21250343 9.20703125 22.37890625 C7.64122637 24.17817304 6.30258667 26.00243569 5 28 C4.39671875 28.89525391 4.39671875 28.89525391 3.78125 29.80859375 C1.49681405 33.47184997 0.41767093 36.718873 0 41 C3.30243195 40.43061518 4.91109409 39.63383789 7 37 C8.04622875 35.02379014 9.05439935 33.0262871 10 31 C11.32 31 12.64 31 14 31 C13.855625 31.969375 13.71125 32.93875 13.5625 33.9375 C13.47484375 34.57816406 13.3871875 35.21882812 13.296875 35.87890625 C13.09711041 37.30617167 12.87797146 38.73084485 12.640625 40.15234375 C11.79980151 45.84792189 12.42081595 50.47938138 14 56 C15.485 55.505 15.485 55.505 17 55 C17.66 55.33 18.32 55.66 19 56 C18.34 57.32 17.68 58.64 17 60 C13.28128181 59.49747051 11.30111149 59.01701285 9 56 C8.26953125 53.08203125 8.26953125 53.08203125 7.8125 49.8125 C7.57466797 48.18248047 7.57466797 48.18248047 7.33203125 46.51953125 C7.22246094 45.68808594 7.11289062 44.85664062 7 44 C6.01 44.495 6.01 44.495 5 45 C1.80799279 45.27756584 -0.4070908 45.24964598 -3.375 44 C-5.39461498 41.51432003 -5.73505277 39.50743726 -5.59375 36.328125 C-4.04918139 30.27179017 0.68295339 25.31704661 5 21 C-0.28 20.67 -5.56 20.34 -11 20 C-11.33 19.01 -11.66 18.02 -12 17 C-3.585 16.505 -3.585 16.505 5 16 C4.21625 14.39125 3.4325 12.7825 2.625 11.125 C2.18414063 10.22007812 1.74328125 9.31515625 1.2890625 8.3828125 C0.09497301 5.90465528 0.09497301 5.90465528 -2 4 C-5.83453269 3.74436449 -9.26779887 4.12183503 -13 5 C-13 3.68 -13 2.36 -13 1 C-8.54966156 -1.56750295 -4.86037585 -1.57222593 0 0 Z " fill="#5DC5D8" transform="translate(591,766)"/>
<path d="M0 0 C3.37617753 2.17575885 5.78034129 4.11926774 7 8 C7.30399283 12.25589957 7.33486745 15.35176961 5 19 C7.31 19 9.62 19 12 19 C12 19.99 12 20.98 12 22 C9.36 22 6.72 22 4 22 C4.24447876 22.78842285 4.24447876 22.78842285 4.49389648 23.59277344 C5.12901421 26.61364212 5.11169006 29.42818682 5.09765625 32.515625 C5.09443359 33.76601563 5.09121094 35.01640625 5.08789062 36.3046875 C5.07951172 37.60664062 5.07113281 38.90859375 5.0625 40.25 C5.05798828 41.56742188 5.05347656 42.88484375 5.04882812 44.2421875 C5.03704316 47.49483741 5.02059011 50.74739584 5 54 C3.68 54.66 2.36 55.32 1 56 C0 55 0 55 -0.11352539 51.85717773 C-0.11336633 50.46597303 -0.10767506 49.07476239 -0.09765625 47.68359375 C-0.0962413 46.95253922 -0.09482635 46.22148468 -0.09336853 45.46827698 C-0.08775408 43.12464368 -0.07519922 40.78110461 -0.0625 38.4375 C-0.05748686 36.85221492 -0.05292363 35.26692834 -0.04882812 33.68164062 C-0.03862921 29.78769457 -0.01905687 25.89395323 0 22 C-8.25 21.67 -16.5 21.34 -25 21 C-21.14259767 19.07129883 -19.88370357 18.75716624 -15.796875 18.8046875 C-14.32734375 18.81435547 -14.32734375 18.81435547 -12.828125 18.82421875 C-11.81234375 18.84097656 -10.7965625 18.85773437 -9.75 18.875 C-8.71875 18.88402344 -7.6875 18.89304687 -6.625 18.90234375 C-4.08309713 18.92587989 -1.5416672 18.95875977 1 19 C1.20557347 17.39581285 1.39846873 15.78999729 1.5859375 14.18359375 C1.69470215 13.28954834 1.8034668 12.39550293 1.91552734 11.47436523 C2.19337592 8.83346994 2.19337592 8.83346994 0.625 6.0625 C-2.94496929 3.25752413 -6.64742292 2.14394654 -11 1 C-6.94913631 -1.28692086 -4.56120575 -1.12029615 0 0 Z " fill="#5BC5D8" transform="translate(851,764)"/>
<path d="M0 0 C2 2.1875 2 2.1875 3 5 C2.34561573 8.63546818 1.65669978 10.42055902 -1.125 12.875 C-2.053125 13.431875 -2.053125 13.431875 -3 14 C-1.02 15.65 0.96 17.3 3 19 C2.67 19.99 2.34 20.98 2 22 C-2.51214898 20.74079563 -5.66780467 19.33219533 -9 16 C-11.03858707 12.33054328 -12.0369172 9.95984711 -11.875 5.75 C-10.97829666 2.93178949 -10.32393333 1.76618933 -8 0 C-5.00422405 -1.49788797 -3.16806651 -0.90516186 0 0 Z " fill="#5DC3CE" transform="translate(255,767)"/>
<path d="M0 0 C2.875 1 2.875 1 4.8125 2.6875 C6.30724051 5.94075876 5.99995561 7.62513318 4.875 11 C2.3125 13.375 2.3125 13.375 -0.125 15 C1.855 16.65 3.835 18.3 5.875 20 C5.545 20.99 5.215 21.98 4.875 23 C-1.42661137 21.38795988 -4.53535882 18.49043784 -8 13.0625 C-9.34182965 9.4097415 -9.40153739 7.670045 -8.125 4 C-5.40013192 0.96371843 -4.11492645 0 0 0 Z " fill="#5BC3CD" transform="translate(268.125,766)"/>
<path d="M0 0 C3.48371543 0.06967431 6.07858492 0.18866548 8.765625 2.5546875 C12.61233902 7.05496943 14.37786737 9.88032724 14.27734375 16.0234375 C14 18 14 18 12.375 20.5 C9.27859404 22.45562482 7.60146865 22.60024477 4 22 C1.5625 20.4375 1.5625 20.4375 0 18 C0.21428571 11.78571429 0.21428571 11.78571429 3 9 C4.32 9 5.64 9 7 9 C3.82460444 5.57421051 3.82460444 5.57421051 0 3 C0 2.01 0 1.02 0 0 Z " fill="#394574" transform="translate(1258,767)"/>
<path d="M0 0 C4.88346661 0.45427596 7.47824579 1.57342833 11 5 C13.31039678 7.94774761 13.96686213 9.7680349 14.5 13.5 C14 17 14 17 11.9375 20 C9 22 9 22 5.3125 22 C2 21 2 21 0 18 C-0.54640069 12.75455334 -0.54640069 12.75455334 1.3125 10.1875 C3 9 3 9 6 8 C6 7.34 6 6.68 6 6 C5.195625 5.7525 4.39125 5.505 3.5625 5.25 C1 4 1 4 0.1875 1.875 C0.125625 1.25625 0.06375 0.6375 0 0 Z " fill="#384473" transform="translate(1242,767)"/>
<path d="M0 0 C4.00186193 -0.02489435 8.00369328 -0.04295127 12.00561523 -0.05493164 C13.36434719 -0.05993113 14.72307385 -0.06673291 16.08178711 -0.07543945 C18.04538585 -0.08769842 20.00902541 -0.09273487 21.97265625 -0.09765625 C23.15093994 -0.10289307 24.32922363 -0.10812988 25.54321289 -0.11352539 C29.09357576 0.00307315 32.49542884 0.4344941 36 1 C36 1.66 36 2.32 36 3 C24.12 3 12.24 3 0 3 C0 2.01 0 1.02 0 0 Z " fill="#4ABFD3" transform="translate(515,783)"/>
<path d="M0 0 C0.99 0 1.98 0 3 0 C2.43128248 3.82530237 1.37470201 6.46211473 -0.75 9.6875 C-1.23984375 10.45449219 -1.7296875 11.22148438 -2.234375 12.01171875 C-4.29925902 14.33699744 -6.06683892 15.06717496 -9 16 C-8.65988792 9.1977583 -4.64401598 4.64401598 0 0 Z " fill="#EBF8FA" transform="translate(818,794)"/>
<path d="M0 0 C0.66 0.33 1.32 0.66 2 1 C-1.96 4.96 -5.92 8.92 -10 13 C-9.67 13.66 -9.34 14.32 -9 15 C-10.96466413 16.06775224 -12.96855359 17.06553465 -15 18 C-15.66 17.67 -16.32 17.34 -17 17 C-11.83794309 10.72690435 -6.12627407 5.3250511 0 0 Z " fill="#5B668C" transform="translate(837,460)"/>
<path d="M0 0 C3.3 0 6.6 0 10 0 C10 0.99 10 1.98 10 3 C8.72125 3.061875 7.4425 3.12375 6.125 3.1875 C5.40570312 3.22230469 4.68640625 3.25710938 3.9453125 3.29296875 C3.30335938 3.19628906 2.66140625 3.09960938 2 3 C1.34 2.01 0.68 1.02 0 0 Z " fill="#53C2D6" transform="translate(601,783)"/>
<path d="M0 0 C2 0.6875 2 0.6875 4 2.6875 C1.36 3.3475 -1.28 4.0075 -4 4.6875 C-4 3.3675 -4 2.0475 -4 0.6875 C-2 -0.3125 -2 -0.3125 0 0 Z " fill="#71CCDD" transform="translate(829,762.3125)"/>
<path d="M0 0 C0.99 0.33 1.98 0.66 3 1 C2.34 2.32 1.68 3.64 1 5 C0.01 5 -0.98 5 -2 5 C-1.125 1.125 -1.125 1.125 0 0 Z " fill="#7CD0E0" transform="translate(607,821)"/>
<path d="M0 0 C0.66 0.33 1.32 0.66 2 1 C-0.31 3.31 -2.62 5.62 -5 8 C-5 5 -5 5 -2.5 2.3125 C-1.675 1.549375 -0.85 0.78625 0 0 Z " fill="#545F87" transform="translate(888,780)"/>
<path d="" fill="#BABECF" transform="translate(0,0)"/>
<path d="" fill="#C6CAD7" transform="translate(0,0)"/>
</svg>
